<svg width="100" height="100" viewBox="0 0 100 100" fill="none" xmlns="http://www.w3.org/2000/svg">
<circle cx="50" cy="50" r="50" fill="white"/>
<path d="M20 72V27H57.7125C62.3715 27 65.9811 28.1748 68.5414 30.5245C71.1438 32.8741 72.4449 36.4406 72.4449 41.2238C72.4449 46.007 71.1438 49.5734 68.5414 51.9231C65.9811 54.2727 62.3715 55.4476 57.7125 55.4476H30.0735V72H20ZM56.5163 35.1818H30.0735V47.2028L56.5163 47.2657C58.3631 47.2657 59.7691 46.8042 60.7345 45.8811C61.7419 44.958 62.2455 43.4056 62.2455 41.2238C62.2455 39 61.7419 37.4476 60.7345 36.5664C59.7691 35.6434 58.3631 35.1818 56.5163 35.1818Z" fill="#FFE603"/>
<path d="M27.5551 72V27H65.2676C69.9265 27 73.5362 28.1748 76.0965 30.5245C78.6988 32.8741 80 36.4406 80 41.2238C80 46.007 78.6988 49.5734 76.0965 51.9231C73.5362 54.2727 69.9265 55.4476 65.2676 55.4476H37.6285V72H27.5551ZM64.0714 35.1818H37.6285V47.2028L64.0714 47.2657C65.9182 47.2657 67.3242 46.8042 68.2896 45.8811C69.297 44.958 69.8006 43.4056 69.8006 41.2238C69.8006 39 69.297 37.4476 68.2896 36.5664C67.3242 35.6434 65.9182 35.1818 64.0714 35.1818Z" fill="#3B6EF1"/>
<path d="M16 76.9421C17.3537 76.9421 20.5122 76.2195 22.3171 73.3294C24.5732 69.7167 26.8293 67.0071 29.9878 67.0071C33.1463 67.0071 34.0488 66.7061 37.2073 70.0177C40.3659 73.3294 43.2988 77.5442 47.1341 76.9421C50.2024 76.4603 52.3232 73.9314 53 72.7272" stroke="#FFE603" stroke-width="3" stroke-linecap="round"/>
<path d="M59 69.208C60.8841 68.0536 65.387 66.0912 68.3261 67.4764C72 69.208 79.913 77 85 77" stroke="#FFE603" stroke-width="3" stroke-linecap="round"/>
</svg>
