<svg width="415" height="50" viewBox="0 0 415 50" fill="none" xmlns="http://www.w3.org/2000/svg">
<path d="M16.75 5.61807C16.75 8.43383 14.4105 10.7361 11.5 10.7361C8.5895 10.7361 6.25 8.43383 6.25 5.61807C6.25 2.80232 8.5895 0.5 11.5 0.5C14.4105 0.5 16.75 2.80232 16.75 5.61807Z" fill="white" stroke="#3B6EF1"/>
<rect x="0.5" y="17.9155" width="22" height="3.49446" rx="1.74723" fill="#FFFDFD" stroke="#3B6EF1"/>
<rect x="3.375" y="6.11816" width="16.25" height="3.49446" rx="1.74723" fill="white" stroke="#3B6EF1"/>
<rect x="5.75" y="10.1123" width="11.5" height="7.30349" fill="#3B6EF1"/>
<ellipse cx="11.5" cy="13.4829" rx="2.875" ry="2.80904" fill="white"/>
<ellipse cx="10.925" cy="12.9211" rx="2.3" ry="2.24723" fill="#FFE603"/>
<path fill-rule="evenodd" clip-rule="evenodd" d="M2.875 21.9097H20.125V39.0123C19.9887 39.077 19.8476 39.1411 19.7012 39.2044C18.1859 39.8601 16.081 40.4474 12.883 40.7945C8.95612 41.2209 5.60838 40.3848 2.875 38.9847V21.9097ZM20.0983 40.1222L20.125 40.1106V45.1888C19.3369 45.335 18.4609 45.4637 17.4827 45.5699C10.9636 46.2776 6.04075 43.5065 2.875 40.451V40.1031C5.67263 41.4445 9.05405 42.2161 12.991 41.7887C16.2616 41.4336 18.4691 40.8271 20.0983 40.1222ZM2.875 41.8095V50H20.125V46.2053C19.3582 46.3427 18.517 46.4635 17.5906 46.5641C11.1642 47.2617 6.21802 44.7647 2.875 41.8095Z" fill="#3B6EF1"/>
<path d="M33.2429 16.9826V12.5455H54.1484V16.9826H46.3555V38H41.0359V16.9826H33.2429ZM57.5913 38V12.5455H62.973V23.0479H73.8981V12.5455H79.2674V38H73.8981V27.4851H62.973V38H57.5913ZM83.7045 38V12.5455H100.857V16.9826H89.0863V23.0479H99.9741V27.4851H89.0863V33.5629H100.906V38H83.7045ZM113.236 38V12.5455H123.278C125.209 12.5455 126.854 12.9142 128.213 13.6516C129.572 14.3808 130.607 15.3958 131.32 16.6967C132.041 17.9893 132.401 19.4808 132.401 21.1712C132.401 22.8615 132.037 24.353 131.308 25.6456C130.578 26.9382 129.522 27.945 128.138 28.6658C126.763 29.3867 125.097 29.7472 123.142 29.7472H116.741V25.4343H122.272C123.307 25.4343 124.161 25.2562 124.832 24.8999C125.511 24.5353 126.017 24.034 126.348 23.396C126.688 22.7496 126.858 22.008 126.858 21.1712C126.858 20.326 126.688 19.5885 126.348 18.9588C126.017 18.3208 125.511 17.8278 124.832 17.4798C124.153 17.1235 123.291 16.9453 122.247 16.9453H118.618V38H113.236ZM159.288 25.2727C159.288 28.0485 158.762 30.41 157.71 32.3572C156.666 34.3045 155.241 35.7918 153.434 36.8192C151.636 37.8384 149.614 38.348 147.369 38.348C145.107 38.348 143.077 37.8343 141.279 36.8068C139.481 35.7794 138.06 34.292 137.016 32.3448C135.972 30.3976 135.449 28.0402 135.449 25.2727C135.449 22.4969 135.972 20.1354 137.016 18.1882C138.06 16.241 139.481 14.7578 141.279 13.7386C143.077 12.7112 145.107 12.1974 147.369 12.1974C149.614 12.1974 151.636 12.7112 153.434 13.7386C155.241 14.7578 156.666 16.241 157.71 18.1882C158.762 20.1354 159.288 22.4969 159.288 25.2727ZM153.832 25.2727C153.832 23.4747 153.563 21.9583 153.024 20.7237C152.494 19.4891 151.744 18.5528 150.774 17.9148C149.805 17.2768 148.67 16.9577 147.369 16.9577C146.068 16.9577 144.933 17.2768 143.963 17.9148C142.994 18.5528 142.24 19.4891 141.701 20.7237C141.171 21.9583 140.906 23.4747 140.906 25.2727C140.906 27.0708 141.171 28.5871 141.701 29.8217C142.24 31.0563 142.994 31.9927 143.963 32.6307C144.933 33.2687 146.068 33.5877 147.369 33.5877C148.67 33.5877 149.805 33.2687 150.774 32.6307C151.744 31.9927 152.494 31.0563 153.024 29.8217C153.563 28.5871 153.832 27.0708 153.832 25.2727ZM163.275 38V12.5455H173.317C175.24 12.5455 176.88 12.8893 178.239 13.5771C179.607 14.2565 180.646 15.2218 181.359 16.473C182.08 17.7159 182.44 19.1784 182.44 20.8604C182.44 22.5508 182.076 24.005 181.347 25.223C180.617 26.4328 179.561 27.3608 178.177 28.0071C176.802 28.6534 175.136 28.9766 173.181 28.9766H166.457V24.6513H172.311C173.338 24.6513 174.192 24.5104 174.871 24.2287C175.551 23.947 176.056 23.5244 176.387 22.9609C176.727 22.3975 176.897 21.6973 176.897 20.8604C176.897 20.0153 176.727 19.3027 176.387 18.7227C176.056 18.1426 175.546 17.7035 174.859 17.4052C174.179 17.0986 173.322 16.9453 172.286 16.9453H168.657V38H163.275ZM177.021 26.4162L183.348 38H177.407L171.217 26.4162H177.021ZM185.274 16.9826V12.5455H206.18V16.9826H198.387V38H193.067V16.9826H185.274ZM209.623 38V12.5455H226.775V16.9826H215.004V23.0479H225.892V27.4851H215.004V33.5629H226.824V38H209.623ZM231.053 38V12.5455H241.096C243.018 12.5455 244.659 12.8893 246.018 13.5771C247.385 14.2565 248.425 15.2218 249.137 16.473C249.858 17.7159 250.219 19.1784 250.219 20.8604C250.219 22.5508 249.854 24.005 249.125 25.223C248.396 26.4328 247.339 27.3608 245.956 28.0071C244.58 28.6534 242.915 28.9766 240.959 28.9766H234.235V24.6513H240.089C241.117 24.6513 241.97 24.5104 242.649 24.2287C243.329 23.947 243.834 23.5244 244.166 22.9609C244.505 22.3975 244.675 21.6973 244.675 20.8604C244.675 20.0153 244.505 19.3027 244.166 18.7227C243.834 18.1426 243.325 17.7035 242.637 17.4052C241.958 17.0986 241.1 16.9453 240.064 16.9453H236.435V38H231.053ZM244.8 26.4162L251.126 38H245.185L238.995 26.4162H244.8ZM262.123 12.5455H268.76L275.77 29.6477H276.068L283.078 12.5455H289.715V38H284.495V21.4322H284.283L277.696 37.8757H274.141L267.554 21.37H267.343V38H262.123V12.5455ZM298.536 38H292.769L301.557 12.5455H308.492L317.267 38H311.5L305.124 18.3622H304.925L298.536 38ZM298.176 27.9947H311.798V32.1957H298.176V27.9947ZM320.331 38V12.5455H330.373C332.295 12.5455 333.936 12.8893 335.295 13.5771C336.662 14.2565 337.702 15.2218 338.415 16.473C339.136 17.7159 339.496 19.1784 339.496 20.8604C339.496 22.5508 339.131 24.005 338.402 25.223C337.673 26.4328 336.617 27.3608 335.233 28.0071C333.857 28.6534 332.192 28.9766 330.236 28.9766H323.512V24.6513H329.366C330.394 24.6513 331.247 24.5104 331.927 24.2287C332.606 23.947 333.112 23.5244 333.443 22.9609C333.783 22.3975 333.953 21.6973 333.953 20.8604C333.953 20.0153 333.783 19.3027 333.443 18.7227C333.112 18.1426 332.602 17.7035 331.914 17.4052C331.235 17.0986 330.377 16.9453 329.342 16.9453H325.712V38H320.331ZM334.077 26.4162L340.403 38H334.462L328.273 26.4162H334.077ZM343.299 38V12.5455H348.681V23.7688H349.017L358.177 12.5455H364.627L355.181 23.9428L364.739 38H358.301L351.328 27.5348L348.681 30.7663V38H343.299ZM367.43 38V12.5455H384.582V16.9826H372.812V23.0479H383.7V27.4851H372.812V33.5629H384.632V38H367.43ZM387.891 16.9826V12.5455H408.797V16.9826H401.004V38H395.684V16.9826H387.891Z" fill="#FFE603"/>
<path d="M37.2429 16.9826V12.5455H58.1484V16.9826H50.3555V38H45.0359V16.9826H37.2429ZM61.5913 38V12.5455H66.973V23.0479H77.8981V12.5455H83.2674V38H77.8981V27.4851H66.973V38H61.5913ZM87.7045 38V12.5455H104.857V16.9826H93.0863V23.0479H103.974V27.4851H93.0863V33.5629H104.906V38H87.7045ZM117.236 38V12.5455H127.278C129.209 12.5455 130.854 12.9142 132.213 13.6516C133.572 14.3808 134.607 15.3958 135.32 16.6967C136.041 17.9893 136.401 19.4808 136.401 21.1712C136.401 22.8615 136.037 24.353 135.308 25.6456C134.578 26.9382 133.522 27.945 132.138 28.6658C130.763 29.3867 129.097 29.7472 127.142 29.7472H120.741V25.4343H126.272C127.307 25.4343 128.161 25.2562 128.832 24.8999C129.511 24.5353 130.017 24.034 130.348 23.396C130.688 22.7496 130.858 22.008 130.858 21.1712C130.858 20.326 130.688 19.5885 130.348 18.9588C130.017 18.3208 129.511 17.8278 128.832 17.4798C128.153 17.1235 127.291 16.9453 126.247 16.9453H122.618V38H117.236ZM163.288 25.2727C163.288 28.0485 162.762 30.41 161.71 32.3572C160.666 34.3045 159.241 35.7918 157.434 36.8192C155.636 37.8384 153.614 38.348 151.369 38.348C149.107 38.348 147.077 37.8343 145.279 36.8068C143.481 35.7794 142.06 34.292 141.016 32.3448C139.972 30.3976 139.449 28.0402 139.449 25.2727C139.449 22.4969 139.972 20.1354 141.016 18.1882C142.06 16.241 143.481 14.7578 145.279 13.7386C147.077 12.7112 149.107 12.1974 151.369 12.1974C153.614 12.1974 155.636 12.7112 157.434 13.7386C159.241 14.7578 160.666 16.241 161.71 18.1882C162.762 20.1354 163.288 22.4969 163.288 25.2727ZM157.832 25.2727C157.832 23.4747 157.563 21.9583 157.024 20.7237C156.494 19.4891 155.744 18.5528 154.774 17.9148C153.805 17.2768 152.67 16.9577 151.369 16.9577C150.068 16.9577 148.933 17.2768 147.963 17.9148C146.994 18.5528 146.24 19.4891 145.701 20.7237C145.171 21.9583 144.906 23.4747 144.906 25.2727C144.906 27.0708 145.171 28.5871 145.701 29.8217C146.24 31.0563 146.994 31.9927 147.963 32.6307C148.933 33.2687 150.068 33.5877 151.369 33.5877C152.67 33.5877 153.805 33.2687 154.774 32.6307C155.744 31.9927 156.494 31.0563 157.024 29.8217C157.563 28.5871 157.832 27.0708 157.832 25.2727ZM167.275 38V12.5455H177.317C179.24 12.5455 180.88 12.8893 182.239 13.5771C183.607 14.2565 184.646 15.2218 185.359 16.473C186.08 17.7159 186.44 19.1784 186.44 20.8604C186.44 22.5508 186.076 24.005 185.347 25.223C184.617 26.4328 183.561 27.3608 182.177 28.0071C180.802 28.6534 179.136 28.9766 177.181 28.9766H170.457V24.6513H176.311C177.338 24.6513 178.192 24.5104 178.871 24.2287C179.551 23.947 180.056 23.5244 180.387 22.9609C180.727 22.3975 180.897 21.6973 180.897 20.8604C180.897 20.0153 180.727 19.3027 180.387 18.7227C180.056 18.1426 179.546 17.7035 178.859 17.4052C178.179 17.0986 177.322 16.9453 176.286 16.9453H172.657V38H167.275ZM181.021 26.4162L187.348 38H181.407L175.217 26.4162H181.021ZM189.274 16.9826V12.5455H210.18V16.9826H202.387V38H197.067V16.9826H189.274ZM213.623 38V12.5455H230.775V16.9826H219.004V23.0479H229.892V27.4851H219.004V33.5629H230.824V38H213.623ZM235.053 38V12.5455H245.096C247.018 12.5455 248.659 12.8893 250.018 13.5771C251.385 14.2565 252.425 15.2218 253.137 16.473C253.858 17.7159 254.219 19.1784 254.219 20.8604C254.219 22.5508 253.854 24.005 253.125 25.223C252.396 26.4328 251.339 27.3608 249.956 28.0071C248.58 28.6534 246.915 28.9766 244.959 28.9766H238.235V24.6513H244.089C245.117 24.6513 245.97 24.5104 246.649 24.2287C247.329 23.947 247.834 23.5244 248.166 22.9609C248.505 22.3975 248.675 21.6973 248.675 20.8604C248.675 20.0153 248.505 19.3027 248.166 18.7227C247.834 18.1426 247.325 17.7035 246.637 17.4052C245.958 17.0986 245.1 16.9453 244.064 16.9453H240.435V38H235.053ZM248.8 26.4162L255.126 38H249.185L242.995 26.4162H248.8ZM266.123 12.5455H272.76L279.77 29.6477H280.068L287.078 12.5455H293.715V38H288.495V21.4322H288.283L281.696 37.8757H278.141L271.554 21.37H271.343V38H266.123V12.5455ZM302.536 38H296.769L305.557 12.5455H312.492L321.267 38H315.5L309.124 18.3622H308.925L302.536 38ZM302.176 27.9947H315.798V32.1957H302.176V27.9947ZM324.331 38V12.5455H334.373C336.295 12.5455 337.936 12.8893 339.295 13.5771C340.662 14.2565 341.702 15.2218 342.415 16.473C343.136 17.7159 343.496 19.1784 343.496 20.8604C343.496 22.5508 343.131 24.005 342.402 25.223C341.673 26.4328 340.617 27.3608 339.233 28.0071C337.857 28.6534 336.192 28.9766 334.236 28.9766H327.512V24.6513H333.366C334.394 24.6513 335.247 24.5104 335.927 24.2287C336.606 23.947 337.112 23.5244 337.443 22.9609C337.783 22.3975 337.953 21.6973 337.953 20.8604C337.953 20.0153 337.783 19.3027 337.443 18.7227C337.112 18.1426 336.602 17.7035 335.914 17.4052C335.235 17.0986 334.377 16.9453 333.342 16.9453H329.712V38H324.331ZM338.077 26.4162L344.403 38H338.462L332.273 26.4162H338.077ZM347.299 38V12.5455H352.681V23.7688H353.017L362.177 12.5455H368.627L359.181 23.9428L368.739 38H362.301L355.328 27.5348L352.681 30.7663V38H347.299ZM371.43 38V12.5455H388.582V16.9826H376.812V23.0479H387.7V27.4851H376.812V33.5629H388.632V38H371.43ZM391.891 16.9826V12.5455H412.797V16.9826H405.004V38H399.684V16.9826H391.891Z" fill="#3B6EF1"/>
</svg>
